<?xml version="1.0" encoding="utf-8"?>
<!-- Generator: Adobe Illustrator 24.0.0, SVG Export Plug-In . SVG Version: 6.00 Build 0)  -->
<svg version="1.1" id="Layer_1" xmlns="http://www.w3.org/2000/svg" xmlns:xlink="http://www.w3.org/1999/xlink" x="0px" y="0px"
	 viewBox="0 0 32 32" style="enable-background:new 0 0 32 32;" xml:space="preserve">
<style type="text/css">
	.st0{fill:#E4DFD6;}
	.st1{fill:#585550;}
	.st2{fill:#444341;}
	.st3{fill:#00FF36;}
	.st4{fill:#EC0000;}
</style>
<path class="st0" d="M6.3,4.9h19.9c1.3,0,2.3,1,2.3,2.3l0,0c0,1.3-1,2.3-2.3,2.3H6.3C5,9.5,4,8.5,4,7.2l0,0C4,5.9,5,4.9,6.3,4.9z"/>
<g>
	<path class="st1" d="M28.6,8.1v17.2c0,1.2-0.8,2.2-1.9,2.2H5.9c-1,0-1.9-1-1.9-2.2V8.1H28.6z"/>
</g>
<path class="st2" d="M28.6,23.7v1.6c0,1.2-0.8,2.2-1.9,2.2H5.9c-1,0-1.9-1-1.9-2.2v-1.6L28.6,23.7L28.6,23.7z"/>
<path class="st3" d="M6.2,17.5l-0.1-0.1c-0.6-0.5-0.6-1.5-0.1-2L19.5,0.4c0.5-0.6,1.5-0.6,2-0.1l0.1,0.1c0.6,0.5,0.6,1.5,0.1,2
	L8.2,17.4C7.7,18,6.8,18,6.2,17.5z"/>
<path class="st4" d="M17.2,31.8l-0.4-0.4c-0.4-0.4-0.4-1.1,0-1.6l12.9-13.1c0.4-0.4,1.1-0.4,1.6,0l0.4,0.4c0.4,0.4,0.4,1.1,0,1.6
	L18.8,31.8C18.4,32.3,17.7,32.3,17.2,31.8z"/>
<path class="st4" d="M31.8,31.4l-0.4,0.4c-0.4,0.4-1.1,0.4-1.6,0L16.8,18.9c-0.4-0.4-0.4-1.1,0-1.6l0.4-0.4c0.4-0.4,1.1-0.4,1.6,0
	l13.1,12.9C32.2,30.2,32.2,30.9,31.8,31.4z"/>
<path class="st3" d="M0.3,10.2L0.5,10c0.5-0.6,1.5-0.6,2-0.1l5.8,5.3c0.6,0.5,0.6,1.5,0.1,2l-0.1,0.1c-0.5,0.6-1.5,0.6-2,0.1
	l-5.8-5.3C-0.2,11.7-0.2,10.8,0.3,10.2z"/>
</svg>
