<?xml version="1.0" encoding="utf-8"?>
<!-- Generator: Adobe Illustrator 24.0.0, SVG Export Plug-In . SVG Version: 6.00 Build 0)  -->
<svg version="1.1" id="Layer_1" xmlns="http://www.w3.org/2000/svg" xmlns:xlink="http://www.w3.org/1999/xlink" x="0px" y="0px"
	 viewBox="0 0 32 32" style="enable-background:new 0 0 32 32;" xml:space="preserve">
<style type="text/css">
	.st0{fill:#DDDABF;}
	.st1{opacity:0.42;fill:#C6C3AC;}
	.st2{opacity:0.68;fill:#F7F5EB;}
</style>
<g>
	<g>
		<path class="st0" d="M12.18,9.42c0,0.52-0.1,1.03-0.28,1.49c-0.13,0.35-0.31,0.67-0.53,0.97c-0.3,0.41-0.68,0.76-1.12,1.03
			c-0.02,0.01-0.04,0.02-0.05,0.03c-0.62,0.38-1.35,0.6-2.13,0.6c-2,0-3.66-1.42-4.03-3.3C3.97,9.97,3.95,9.7,3.95,9.42
			c0-1.81,1.17-3.35,2.8-3.9C7.16,5.38,7.6,5.31,8.06,5.31h0.01c0.09,0,0.18,0,0.26,0.01C10.48,5.46,12.18,7.24,12.18,9.42z"/>
	</g>
	<g>
		<path class="st0" d="M16.29,6.8c0,0.31-0.03,0.61-0.1,0.9c-0.2,0.88-0.68,1.66-1.35,2.23c-0.72,0.61-1.65,0.98-2.67,0.98
			c-0.09,0-0.19,0-0.28-0.01C9.76,10.77,8.06,8.98,8.06,6.8c0-0.52,0.1-1.03,0.28-1.49c0.04-0.1,0.08-0.2,0.13-0.3l0,0l0,0
			C8.71,4.51,9.06,4.06,9.48,3.7c0.72-0.63,1.67-1.01,2.7-1.01C14.45,2.69,16.29,4.53,16.29,6.8z"/>
	</g>
	<g>
		<path class="st0" d="M24.23,25.88c0,0.52-0.1,1.03-0.28,1.49c-0.04,0.11-0.09,0.22-0.15,0.33c-0.12,0.24-0.26,0.47-0.42,0.68
			C22.63,29.37,21.45,30,20.11,30C17.84,30,16,28.16,16,25.88c0-1.25,0.55-2.36,1.43-3.12c0.38-0.33,0.83-0.59,1.31-0.76
			c0.43-0.15,0.89-0.23,1.37-0.23c0.04,0,0.09,0,0.13,0c0.05,0,0.1,0,0.14,0.01c0.74,0.05,1.43,0.29,2.01,0.68
			C23.5,23.2,24.23,24.46,24.23,25.88z"/>
	</g>
	<g>
		<circle class="st0" cx="24.23" cy="23.27" r="4.12"/>
	</g>
	<g>
		<polygon class="st0" points="23.42,21.72 22.4,22.46 21.3,23.26 20.23,24.04 20.19,24.07 19,24.93 17.43,22.77 10.33,13.01 
			10.25,12.91 5.88,6.9 7.1,6.01 8.08,5.31 8.47,5.02 8.47,5.02 10.3,3.69 14.85,9.93 22.02,19.79 		"/>
	</g>
</g>
<path class="st1" d="M4.03,10.23c2.16,0.69,4.23,1.6,6.17,2.71c-0.62,0.38-1.35,0.6-2.13,0.6C6.07,13.54,4.4,12.12,4.03,10.23z"/>
<path class="st1" d="M23.8,27.7c-0.12,0.24-0.26,0.47-0.42,0.68C22.63,29.37,21.45,30,20.11,30C17.84,30,16,28.16,16,25.88
	c0-1.25,0.55-2.36,1.43-3.12l-7.1-9.75c3.87,2.22,7.24,5.21,9.92,8.76c0.03,0.04,0.07,0.09,0.1,0.13c0.33,0.44,0.65,0.9,0.96,1.36
	c0.87,1.3,1.65,2.66,2.33,4.08C23.69,27.46,23.75,27.58,23.8,27.7z"/>
<path class="st2" d="M15.21,5.89c0,0.25-0.03,0.49-0.08,0.73c-1.15-0.17-2.22-0.59-3.15-1.22c-0.69-0.46-1.3-1.04-1.82-1.7
	c-0.08-0.1-0.15-0.2-0.22-0.3c0.56-0.51,1.29-0.81,2.09-0.81C13.78,2.57,15.21,4.06,15.21,5.89z"/>
</svg>
