<?xml version="1.0" encoding="utf-8"?>
<!-- Generator: Adobe Illustrator 24.0.0, SVG Export Plug-In . SVG Version: 6.00 Build 0)  -->
<svg version="1.1" id="Layer_1" xmlns="http://www.w3.org/2000/svg" xmlns:xlink="http://www.w3.org/1999/xlink" x="0px" y="0px"
	 viewBox="0 0 32 32" style="enable-background:new 0 0 32 32;" xml:space="preserve">
<style type="text/css">
	.st0{fill:#EAC6BB;}
	.st1{opacity:0.2;}
	.st2{fill:#FFFFFF;}
	.st3{fill:#DBAFA5;}
	.st4{fill:#BF392C;}
</style>
<path class="st0" d="M29.1,18.15c-0.34-2.61-1-6.48-2.3-10.16c-0.09-0.25-0.33-0.41-0.6-0.4l-4.11,0.24
	c-0.31,0.02-0.55,0.26-0.56,0.57c-0.26,5.13-0.21,8-0.13,9.51c-1.16-0.8-3.17-1.8-6-1.8c-1.52,0-3.11,0.29-4.73,0.87
	c-0.28-0.41-0.79-1.04-1.54-1.67c-1.16-0.96-3.17-2.1-6.13-2.07c-0.33,0-0.59,0.27-0.59,0.6V30.4c0,0.23,0.14,0.45,0.35,0.54
	C2.83,30.98,2.91,31,3,31c0.14,0,0.28-0.05,0.39-0.14l5.21-4.49c2.3,1.65,5.18,2.51,8.37,2.51h0c2.6,0,5.32-0.59,7.66-1.66
	c2.31-1.05,4.02-2.45,4.82-3.95c0.05-0.09,0.07-0.2,0.07-0.3C29.52,22.9,29.46,20.97,29.1,18.15z"/>
<g class="st1">
	<path class="st2" d="M2.99,14.44c2.96-0.03,4.97,1.11,6.13,2.07c0.76,0.63,1.26,1.26,1.54,1.67c1.62-0.58,3.21-0.87,4.73-0.87
		c2.82,0,4.84,1,6,1.8c-0.02-0.34-0.03-0.74-0.05-1.23c-1.17-0.8-3.16-1.77-5.95-1.77c-1.52,0-3.11,0.29-4.73,0.87
		c-0.28-0.41-0.79-1.04-1.54-1.67c-1.16-0.96-3.17-2.1-6.13-2.07c-0.33,0-0.59,0.27-0.59,0.6v1.2C2.4,14.71,2.66,14.45,2.99,14.44z"
		/>
</g>
<path class="st3" d="M3,31c-0.17,0-0.34-0.07-0.45-0.21c-0.22-0.25-0.19-0.63,0.06-0.84l7.19-6.19c0.25-0.22,0.63-0.19,0.84,0.06
	c0.22,0.25,0.19,0.63-0.06,0.84l-7.19,6.19C3.27,30.95,3.13,31,3,31z"/>
<path class="st4" d="M26.8,7.78c-0.09-0.25-0.33-0.41-0.6-0.4l-4.11,0.24c-0.31,0.02-0.55,0.26-0.56,0.57
	c-0.06,1.22-0.11,2.31-0.14,3.29c0.72,0.18,1.48,0.25,2.23,0.25c1.76,0,3.43-0.38,4.19-0.58C27.53,10.03,27.19,8.89,26.8,7.78z"/>
<path class="st0" d="M26.83,7.15c0-0.03-0.08-0.8-0.28-1.74c-0.29-1.31-0.68-2.28-1.17-2.89c-0.07-0.09-0.16-0.17-0.58-0.37
	c-0.2-0.09-0.52-0.22-0.94-0.36c-0.69-0.23-1.75-0.5-2.9-0.5c-0.84,0-1.62,0.15-2.3,0.43c-1.38,0.58-2.38,2.22-2.05,3.38
	c0.13,0.46,0.41,0.74,0.68,0.9c0,0.02,0,0.04,0,0.06C17.31,6.6,17.57,7.03,18,7.22c0.21,0.09,0.44,0.14,0.7,0.14
	c0.15,0,0.29-0.02,0.42-0.04c0.2,0.43,0.56,0.86,1.16,1c0.1,0.02,0.2,0.03,0.31,0.03c0.46,0,1.02-0.47,1.4-0.65
	c0.37,0.32,0.95,0.88,1.82,0.88c0.05,0,0.11,0,0.17,0c1.73-0.07,2.58-0.85,2.67-0.94C26.79,7.51,26.85,7.33,26.83,7.15z"/>
<path class="st3" d="M22,7.7c-0.38,0.18-0.93,0.05-1.4,0.05c-0.11,0-0.21-0.01-0.31-0.03c-0.6-0.14-0.96-0.57-1.16-1
	C19,6.74,18.85,6.76,18.71,6.76c-0.26,0-0.5-0.05-0.7-0.14c-0.43-0.19-0.69-0.61-0.71-1.16c0-0.02,0-0.04,0-0.06
	c-0.28-0.16-0.55-0.44-0.68-0.9c-0.02-0.06-0.03-0.12-0.04-0.18c-0.04,0.27-0.03,0.54,0.04,0.78c0.13,0.46,0.41,0.74,0.68,0.9
	c0,0.02,0,0.04,0,0.06C17.31,6.6,17.57,7.03,18,7.22c0.21,0.09,0.44,0.14,0.7,0.14c0.15,0,0.29-0.02,0.42-0.04
	c0.2,0.43,0.56,0.86,1.16,1c0.1,0.02,0.2,0.03,0.31,0.03C21.07,8.35,21.69,8.24,22,7.7z"/>
</svg>
