<?xml version="1.0" encoding="utf-8"?>
<!-- Generator: Adobe Illustrator 24.0.0, SVG Export Plug-In . SVG Version: 6.00 Build 0)  -->
<svg version="1.1" id="Layer_1" xmlns="http://www.w3.org/2000/svg" xmlns:xlink="http://www.w3.org/1999/xlink" x="0px" y="0px"
	 viewBox="0 0 32 32" style="enable-background:new 0 0 32 32;" xml:space="preserve">
<style type="text/css">
	.st0{fill:#444341;}
	.st1{fill:#524F49;}
	.st2{fill:#E4DFD6;}
	.st3{fill:#77746F;}
	.st4{fill:#585550;}
</style>
<path class="st0" d="M19.76,24.1l3.99,3.99c0.67,0.67,1.75,0.68,2.44,0.03c0.24-0.22,0.48-0.45,0.71-0.69
	c0.18-0.18,0.36-0.36,0.53-0.54c0.66-0.69,0.64-1.77-0.03-2.45l-4-4C22.66,19.71,19.02,23.36,19.76,24.1z"/>
<path class="st1" d="M24.99,19.19c1.31,1.31,0.1,2.98-1.68,4.76l0,0c-1.78,1.78-3.45,2.99-4.76,1.68l-2.33-2.33
	c-1.31-1.31-0.94-3.82,0.84-5.6l0,0c1.78-1.78,4.28-2.16,5.6-0.84L24.99,19.19L24.99,19.19z"/>
<path class="st2" d="M7.55,11.42l-2.26,2.26l-1.66-1.66c-0.46-0.46-0.33-1.34,0.29-1.96l0,0c0.62-0.62,1.5-0.76,1.96-0.3L7.55,11.42
	z"/>
<path class="st3" d="M10.01,13.5c0.54,0.54,0.38,1.57-0.34,2.29l0,0c-0.73,0.73-1.76,0.88-2.29,0.35l-2.39-2.39l2.64-2.64
	L10.01,13.5L10.01,13.5z"/>
<path class="st2" d="M13.24,5.72l-2.26,2.26L9.33,6.32C8.87,5.86,9,4.98,9.62,4.36l0,0c0.62-0.62,1.5-0.76,1.96-0.3L13.24,5.72
	L13.24,5.72z"/>
<path class="st3" d="M15.71,7.8c0.54,0.54,0.38,1.57-0.34,2.29l0,0c-0.73,0.73-1.76,0.88-2.29,0.35l-2.39-2.39l2.64-2.64L15.71,7.8z
	"/>
<path class="st4" d="M23.8,18.52l-5.79,5.79c-2.25,2.25-10.02-2.39-11.76-4.13c-1.74-1.74-0.69-3.28,1.69-5.65l6.08-6.08
	c2.37-2.37,3.91-3.43,5.65-1.69C21.41,8.5,26.05,16.27,23.8,18.52z"/>
<path class="st1" d="M6.2,20.23c-1.74-1.74-0.64-3.33,1.73-5.7l6.08-6.08c2.37-2.37,3.96-3.47,5.7-1.73c0,0-0.01,0.36-6.58,6.93
	S6.2,20.23,6.2,20.23z"/>
</svg>
