<?xml version="1.0" encoding="utf-8"?>
<!-- Generator: Adobe Illustrator 24.0.0, SVG Export Plug-In . SVG Version: 6.00 Build 0)  -->
<svg version="1.1" id="Layer_1" xmlns="http://www.w3.org/2000/svg" xmlns:xlink="http://www.w3.org/1999/xlink" x="0px" y="0px"
	 viewBox="0 0 32 32" style="enable-background:new 0 0 32 32;" xml:space="preserve">
<style type="text/css">
	.st0{fill:#FBFFC8;stroke:#000000;stroke-linejoin:round;stroke-miterlimit:10;}
</style>
<path class="st0" d="M23.8,5.9"/>
<polyline class="st0" points="14.5,10.3 14.5,7.9 10,7.9 16.2,1.5 22.4,7.8 17.6,7.8 17.6,10.3 "/>
<path class="st0" d="M11.4,8.1"/>
<path class="st0" d="M15.5,12.5"/>
<path class="st0" d="M13.9,9.8"/>
<path class="st0" d="M19.5,9.8"/>
<path class="st0" d="M26.8,24.3"/>
<polyline class="st0" points="22.6,14.1 24.9,14.1 24.9,9.5 31.1,15.9 24.9,22.2 24.9,17.3 22.5,17.3 "/>
<polyline class="st0" points="9.4,17.9 7.1,17.9 7.1,22.5 0.9,16.1 7.1,9.8 7.1,14.7 9.5,14.7 "/>
<polyline class="st0" points="17.9,22.5 17.9,24.9 22.4,24.9 16.2,31.3 10,24.9 14.8,24.9 14.8,22.5 "/>
<polyline class="st0" points="17.9,22.5 17.9,24.9 22.4,24.9 16.2,31.3 10,24.9 14.8,24.9 14.8,22.5 "/>
<path class="st0" d="M20.4,15.6"/>
<path class="st0" d="M23,20"/>
</svg>
