<?xml version="1.0" encoding="utf-8"?>
<!-- Generator: Adobe Illustrator 24.0.0, SVG Export Plug-In . SVG Version: 6.00 Build 0)  -->
<svg version="1.1" id="Layer_1" xmlns="http://www.w3.org/2000/svg" xmlns:xlink="http://www.w3.org/1999/xlink" x="0px" y="0px"
	 viewBox="0 0 32 32" style="enable-background:new 0 0 32 32;" xml:space="preserve">
<style type="text/css">
	.st0{fill:#DBAFA5;}
	.st1{fill:#EAC6BB;}
	.st2{fill:#965353;}
	.st3{fill:#E6E9ED;}
	.st4{fill:#AA8CC0;}
</style>
<path class="st0" d="M26.8,25.23l-0.1-0.03c-1.45-0.39-1.94-0.76-2.58-1.01c-1.16-0.44-1.88-0.82-2.34-1.13
	c-0.22-0.41-0.49-0.91-0.71-1.33l0-0.57c-0.01-0.81-0.66-1.46-1.46-1.47l-3.96-0.04l-3.96,0.04c-0.81,0.01-1.46,0.66-1.46,1.47
	l0,0.57c-0.22,0.41-0.49,0.92-0.71,1.33c-0.45,0.3-1.18,0.68-2.34,1.13c-0.64,0.24-1.13,0.62-2.58,1.01l-0.1,0.03
	c-1.32,0.44-2.2,1.66-2.2,3.03v2.35c0,0.82,0.66,1.48,1.48,1.48h11.88h11.88c0.82,0,1.48-0.66,1.48-1.48v-2.35
	C29,26.89,28.11,25.67,26.8,25.23z"/>
<path class="st1" d="M23.16,14.96c0,4.88-4.66,9.38-7.52,9.38c-2.86,0-7.52-4.49-7.52-9.38s3.36-8.1,7.52-8.1
	S23.16,10.07,23.16,14.96z"/>
<path class="st2" d="M19.52,6.9c0,0-0.15-1.3,1.41-2.23c0.66-0.4-9.88-2.27-12.52,4.38c-0.4,1.01-0.52,2.21-0.52,3.28
	c0,1.59,2.55-1.2,2.55-1.2s2.5,0.58,5.2,0.58s5.29-0.58,5.29-0.58s2.49,2.43,2.56,1.13c0.05-1.03-0.02-2.22-0.44-3.2
	C22.09,6.85,19.52,6.9,19.52,6.9z"/>
<path class="st3" d="M22.53,10.27c-0.29-0.1-0.64-0.15-0.97-0.15c-0.26,0-0.63,0.03-0.93,0.18c-0.06,0.03-0.17,0.06-0.32,0.06
	c-0.15,0-0.27-0.03-0.32-0.06c-0.23-0.12-0.53-0.18-0.84-0.18s-0.61,0.06-0.84,0.18c-0.06,0.03-0.17,0.06-0.32,0.06
	c-0.15,0-0.26-0.03-0.32-0.06c-0.23-0.12-0.53-0.18-0.84-0.18c-0.31,0-0.61,0.06-0.84,0.18c-0.06,0.03-0.17,0.06-0.32,0.06
	c-0.15,0-0.27-0.03-0.32-0.06c-0.23-0.12-0.53-0.18-0.84-0.18c-0.31,0-0.61,0.06-0.84,0.18c-0.06,0.03-0.17,0.06-0.32,0.06
	c-0.15,0-0.27-0.03-0.32-0.06c-0.23-0.12-0.53-0.18-0.84-0.18s-0.61,0.06-0.84,0.18c-0.06,0.03-0.17,0.06-0.32,0.06
	c-0.15,0-0.27-0.03-0.32-0.06c-0.3-0.15-0.67-0.18-0.93-0.18c-0.34,0-0.68,0.05-0.97,0.15c-0.73,0.24-1.27,1.11-1.27,2.01
	c0,0.86,0.52,1.49,1.25,1.49c0.13,0,0.26-0.02,0.39-0.07c0.17-0.06,0.39-0.09,0.6-0.09c0.23,0,0.37,0.04,0.41,0.06
	c0.23,0.12,0.53,0.18,0.84,0.18c0.31,0,0.61-0.06,0.84-0.18c0.06-0.03,0.17-0.06,0.32-0.06s0.27,0.03,0.32,0.06
	c0.23,0.12,0.53,0.18,0.84,0.18c0.31,0,0.61-0.06,0.84-0.18c0.06-0.03,0.17-0.06,0.32-0.06c0.15,0,0.27,0.03,0.32,0.06
	c0.23,0.12,0.53,0.18,0.84,0.18c0.31,0,0.61-0.06,0.84-0.18c0.06-0.03,0.17-0.06,0.32-0.06c0.15,0,0.26,0.03,0.32,0.06
	c0.24,0.12,0.53,0.18,0.84,0.18c0.31,0,0.61-0.06,0.84-0.18c0.06-0.03,0.17-0.06,0.32-0.06c0.15,0,0.27,0.03,0.32,0.06
	c0.23,0.12,0.53,0.18,0.84,0.18c0.31,0,0.61-0.06,0.84-0.18c0.04-0.02,0.18-0.06,0.41-0.06c0.21,0,0.43,0.03,0.6,0.09
	c0.13,0.04,0.26,0.07,0.4,0.07c0.72,0,1.25-0.63,1.25-1.49C23.8,11.38,23.25,10.51,22.53,10.27z"/>
<path class="st4" d="M24.93,24.57l-3.45-1.72c-0.44,1.38-1.88,5.17-5.85,5.17c-3.9,0-5.36-3.76-5.82-5.18l-3.46,1.73
	c0,0,1.51,2.58,1.13,7.53H23.8C23.43,27.14,24.93,24.57,24.93,24.57z"/>
</svg>
