<?xml version="1.0" encoding="utf-8"?>
<!-- Generator: Adobe Illustrator 24.0.0, SVG Export Plug-In . SVG Version: 6.00 Build 0)  -->
<svg version="1.1" id="Layer_1" xmlns="http://www.w3.org/2000/svg" xmlns:xlink="http://www.w3.org/1999/xlink" x="0px" y="0px"
	 viewBox="0 0 32 32" style="enable-background:new 0 0 32 32;" xml:space="preserve">
<style type="text/css">
	.st0{fill:#E4DFD6;}
	.st1{fill:#585550;}
	.st2{fill:#444341;}
</style>
<path class="st0" d="M6.32,4.87h19.93c1.28,0,2.32,1.04,2.32,2.32v0c0,1.28-1.04,2.32-2.32,2.32H6.32C5.04,9.51,4,8.47,4,7.19v0
	C4,5.91,5.04,4.87,6.32,4.87z"/>
<g>
	<path class="st1" d="M28.56,8.14v17.17c0,1.21-0.84,2.19-1.87,2.19H5.87C4.84,27.5,4,26.52,4,25.31V8.14H28.56z"/>
</g>
<g>
	<path class="st0" d="M27.48,17.74h-4.77v-5.58h4.77c0.32,0,0.59-0.31,0.59-0.69c0-0.38-0.26-0.69-0.59-0.69H5.06
		c-0.32,0-0.59,0.31-0.59,0.69c0,0.38,0.26,0.69,0.59,0.69h4.77v5.58H5.06c-0.32,0-0.59,0.31-0.59,0.69c0,0.38,0.26,0.69,0.59,0.69
		h22.42c0.32,0,0.59-0.31,0.59-0.69C28.06,18.05,27.8,17.74,27.48,17.74z M21.54,17.74H11v-5.58h10.54V17.74z"/>
</g>
<path class="st2" d="M28.56,23.68v1.62c0,1.21-0.84,2.19-1.87,2.19H5.87C4.84,27.5,4,26.52,4,25.31v-1.62H28.56z"/>
</svg>
