<?xml version="1.0" encoding="utf-8"?>
<!-- Generator: Adobe Illustrator 24.0.0, SVG Export Plug-In . SVG Version: 6.00 Build 0)  -->
<svg version="1.1" id="Layer_1" xmlns="http://www.w3.org/2000/svg" xmlns:xlink="http://www.w3.org/1999/xlink" x="0px" y="0px"
	 viewBox="0 0 32 32" style="enable-background:new 0 0 32 32;" xml:space="preserve">
<style type="text/css">
	.st0{fill:#EAC6BB;}
	.st1{fill:#DBAFA5;}
	.st2{fill:#BF392C;}
	.st3{fill:#9D3A30;}
</style>
<path class="st0" d="M20.1,17.7v8.4c0,0.5-0.5,0.9-1.1,0.9H18c-0.6,0-1.1-0.4-1.1-0.9v-8.4c0-0.5,0.5-0.9,1.1-0.9h1.1
	C19.7,16.8,20.1,17.2,20.1,17.7z"/>
<path class="st0" d="M26.4,10.6v0.9c0,0.5-0.5,0.9-1.1,0.9h-18c-0.6,0-1.1-0.4-1.1-0.9v-0.9c0-0.5,0.5-0.9,1.1-0.9h18
	C25.9,9.7,26.4,10.1,26.4,10.6z"/>
<path class="st0" d="M15.6,17.7v8.4c0,0.5-0.5,0.9-1.1,0.9h-1.1c-0.6,0-1.1-0.4-1.1-0.9v-8.4c0-0.5,0.5-0.9,1.1-0.9h1.1
	C15.1,16.8,15.5,17.2,15.6,17.7C15.6,17.6,15.6,17.7,15.6,17.7z"/>
<path class="st0" d="M20.1,11.4v7.5c0,0.2,0,0.3-0.1,0.5c-0.2,0.7-1,1.2-2,1.2h-3.7c-1.1,0-2.1-0.8-2.1-1.7v-7.5c0,0,0,0,0-0.1
	c0-0.3,0.1-0.5,0.2-0.7c0.3-0.6,1-0.9,1.8-0.9h3.7C19.2,9.7,20.1,10.4,20.1,11.4z"/>
<path class="st0" d="M19.2,6.1c0,1.4-0.9,2.5-2.2,2.8C16.8,9,16.6,9,16.3,9c-1.6,0-2.9-1.3-2.9-2.9s1.3-2.9,2.9-2.9
	c0.3,0,0.6,0,0.9,0.2C18.4,3.8,19.2,4.8,19.2,6.1z"/>
<path class="st1" d="M15.6,17.6L15.6,17.6c0,0.1,0,0.1,0,0.1c0,0.3,0,0.5-0.1,0.8c-0.1,0.7-0.2,1.4-0.4,2c-0.3,1-0.8,1.9-1.4,2.7
	c-0.4,0.5-0.8,1-1.3,1.5V12.3H7.3c-0.6,0-1.1-0.4-1.1-0.9v-0.9c0-0.5,0.5-0.9,1.1-0.9h4.4c0.3,0.3,0.7,0.6,1,0.9
	c0.5,0.5,1,1.1,1.4,1.7c0.8,1.2,1.3,2.5,1.5,3.8C15.6,16.6,15.6,17.1,15.6,17.6z"/>
<path class="st2" d="M20.1,17.6v4.7c0,0.2-0.3,0.4-0.7,0.4h-1.9c-0.4,0-0.7-0.2-0.7-0.4V21c0-0.2-0.3-0.4-0.7-0.4
	c-0.2,0-0.4,0-0.5,0.1c-0.1,0.1-0.2,0.2-0.2,0.3v1.3c0,0.2-0.3,0.4-0.7,0.4h-1.9c-0.4,0-0.7-0.2-0.7-0.4v-4.7c0-0.2,0.3-0.4,0.7-0.4
	h6.4C19.9,17.1,20.1,17.3,20.1,17.6z"/>
<rect x="12.4" y="17" class="st3" width="7.8" height="0.8"/>
</svg>
