<?xml version="1.0" encoding="utf-8"?>
<!-- Generator: Adobe Illustrator 24.0.0, SVG Export Plug-In . SVG Version: 6.00 Build 0)  -->
<svg version="1.1" id="Layer_1" xmlns="http://www.w3.org/2000/svg" xmlns:xlink="http://www.w3.org/1999/xlink" x="0px" y="0px"
	 viewBox="0 0 7 32" style="enable-background:new 0 0 7 32;" xml:space="preserve">
<style type="text/css">
	.st0{fill:#FFFFFF;}
</style>
<g>
	<path class="st0" d="M2.5,31.25c-0.96,0-1.75-0.79-1.75-1.75v-27c0-0.96,0.79-1.75,1.75-1.75h2c0.96,0,1.75,0.79,1.75,1.75v27
		c0,0.96-0.79,1.75-1.75,1.75H2.5z"/>
	<path class="st0" d="M4.5,1.5c0.55,0,1,0.45,1,1v27c0,0.55-0.45,1-1,1h-2c-0.55,0-1-0.45-1-1v-27c0-0.55,0.45-1,1-1H4.5 M4.5,0h-2
		C1.12,0,0,1.12,0,2.5v27C0,30.88,1.12,32,2.5,32h2C5.88,32,7,30.88,7,29.5v-27C7,1.12,5.88,0,4.5,0L4.5,0z"/>
</g>
</svg>
