<?xml version="1.0" encoding="utf-8"?>
<!-- Generator: Adobe Illustrator 24.0.0, SVG Export Plug-In . SVG Version: 6.00 Build 0)  -->
<svg version="1.1" id="Layer_1" xmlns="http://www.w3.org/2000/svg" xmlns:xlink="http://www.w3.org/1999/xlink" x="0px" y="0px"
	 viewBox="0 0 32 32" style="enable-background:new 0 0 32 32;" xml:space="preserve">
<style type="text/css">
	.st0{fill:#CCCFD1;}
	.st1{fill:#D9DCDD;}
	.st2{fill:#B7BABC;}
	.st3{fill:#C2C4C5;}
	.st4{fill:#BF392C;}
	.st5{fill:#E4E5E5;}
	.st6{fill:#9D3A30;}
</style>
<g>
	<path class="st0" d="M8.59,3.9c1.54,0,14.91,1.57,14.91,1.57v4.71c0,0-11.03,0-12.55,0S3.89,8.6,3.89,7.04
		C3.89,5.56,7.06,3.9,8.59,3.9z"/>
	<path class="st1" d="M10.95,10.18c1.52,0,12.55,0,12.55,0V9.26c-1.27-1.31-3.95-2.22-7.06-2.22c-3.55,0-6.55,1.18-7.51,2.8
		C9.77,10.05,10.52,10.18,10.95,10.18z"/>
	<path class="st2" d="M18.01,10.18c2.87,0,5.49,0,5.49,0V5.47c0,0-2.52-0.3-5.49-0.63V10.18z"/>
	<path class="st3" d="M18.01,10.18c2.87,0,5.49,0,5.49,0V9.26c-1.05-1.09-3.07-1.89-5.49-2.13V10.18z"/>
	<path class="st4" d="M27.81,13.27c-0.06,0.07-0.12,0.13-0.18,0.19L13.47,27.62C12.55,28.55,11.34,29,10.13,29
		c-1.19-0.01-2.38-0.47-3.28-1.37c-1.83-1.83-1.83-4.8,0-6.62l10.82-10.82L21,6.84c0.71-0.71,1.58-1.14,2.5-1.3
		c1.45-0.26,3,0.18,4.13,1.3C29.4,8.61,29.45,11.43,27.81,13.27z"/>
	<path class="st5" d="M11.08,23.12l0.58-0.58c0.32-0.32,0.32-0.83,0-1.15c-0.32-0.32-0.83-0.32-1.15,0l-0.58,0.58l-0.58-0.58
		c-0.32-0.32-0.83-0.32-1.15,0c-0.32,0.32-0.32,0.83,0,1.15l0.58,0.58L8.2,23.7c-0.32,0.32-0.32,0.83,0,1.15
		c0.32,0.32,0.83,0.32,1.15,0l0.58-0.57l0.58,0.57c0.32,0.32,0.83,0.32,1.15,0c0.32-0.32,0.32-0.83,0-1.15L11.08,23.12z"/>
</g>
<path class="st6" d="M27.81,13.27c-0.06,0.07-0.12,0.13-0.18,0.19L13.47,27.62C12.55,28.55,11.34,29,10.13,29
	c0.37-1.1,0.82-2.16,1.34-3.18c0.24-0.48,0.5-0.95,0.78-1.4C15.6,18.8,21.2,14.67,27.81,13.27z"/>
</svg>
