<?xml version="1.0" encoding="utf-8"?>
<!-- Generator: Adobe Illustrator 24.0.0, SVG Export Plug-In . SVG Version: 6.00 Build 0)  -->
<svg version="1.1" id="Layer_1" xmlns="http://www.w3.org/2000/svg" xmlns:xlink="http://www.w3.org/1999/xlink" x="0px" y="0px"
	 viewBox="0 0 32 32" style="enable-background:new 0 0 32 32;" xml:space="preserve">
<style type="text/css">
	.st0{fill:#DDDABF;}
	.st1{fill:#C6C3AC;}
</style>
<path class="st0" d="M20.89,6.71l6.57,12.53c0.97,1.86,0.26,4.15-1.6,5.13l-8.55,4.49c-1.86,0.97-4.15,0.26-5.13-1.6L5.61,14.73
	c-0.97-1.86-0.26-4.15,1.6-5.13l2.25-1.18c0.46-0.24,0.97-0.39,1.5-0.42c0.25-0.02,0.51-0.09,0.75-0.22
	c0.25-0.13,0.46-0.31,0.62-0.52c0.31-0.41,0.73-0.73,1.18-0.97l2.25-1.18C17.62,4.14,19.91,4.85,20.89,6.71z"/>
<path class="st0" d="M12.79,2.61L6.86,5.72C5.57,6.4,4.67,7.53,4.27,8.82c-0.4,1.29-0.31,2.73,0.36,4.02
	c0.14,0.26,0.29,0.5,0.46,0.72c1.53,2.03,4.34,2.72,6.67,1.5l5.93-3.11c1.29-0.68,2.19-1.81,2.59-3.1c0.32-1.03,0.33-2.16-0.03-3.24
	c-0.09-0.27-0.2-0.53-0.34-0.79C18.56,2.25,15.37,1.25,12.79,2.61z M12.9,10.01c-0.44,0.23-0.93,0.28-1.32,0.15
	c-0.31-0.09-0.57-0.29-0.72-0.57c-0.34-0.64,0.03-1.5,0.82-1.91c0.79-0.41,1.7-0.23,2.04,0.41c0.15,0.28,0.16,0.6,0.06,0.91
	C13.65,9.41,13.34,9.78,12.9,10.01z"/>
<path class="st1" d="M21.54,10.72l-11.3,5.93c-0.22,0.11-0.49,0.03-0.6-0.19l0,0c-0.11-0.22-0.03-0.49,0.19-0.6l11.3-5.93
	c0.22-0.11,0.49-0.03,0.6,0.19l0,0C21.84,10.34,21.75,10.61,21.54,10.72z"/>
<path class="st1" d="M22.82,13.17l-11.3,5.93c-0.22,0.11-0.49,0.03-0.6-0.19l0,0c-0.11-0.22-0.03-0.49,0.19-0.6l11.3-5.93
	c0.22-0.11,0.49-0.03,0.6,0.19v0C23.12,12.78,23.04,13.05,22.82,13.17z"/>
<path class="st1" d="M24.1,15.61l-11.3,5.93c-0.22,0.11-0.49,0.03-0.6-0.19v0c-0.11-0.22-0.03-0.49,0.19-0.6l11.3-5.93
	c0.22-0.11,0.49-0.03,0.6,0.19v0C24.4,15.23,24.32,15.5,24.1,15.61z"/>
<path class="st1" d="M25.38,18.06l-11.3,5.93c-0.22,0.11-0.49,0.03-0.6-0.19l0,0c-0.11-0.22-0.03-0.49,0.19-0.6l11.3-5.93
	c0.22-0.11,0.49-0.03,0.6,0.19l0,0C25.69,17.67,25.6,17.94,25.38,18.06z"/>
<path class="st1" d="M26.67,20.5l-11.3,5.93c-0.22,0.11-0.49,0.03-0.6-0.19l0,0c-0.11-0.22-0.03-0.49,0.19-0.6l11.3-5.93
	c0.22-0.11,0.49-0.03,0.6,0.19l0,0C26.97,20.12,26.89,20.39,26.67,20.5z"/>
<circle class="st1" cx="11.63" cy="7.53" r="2.42"/>
</svg>
