<?xml version="1.0" encoding="utf-8"?>
<!-- Generator: Adobe Illustrator 24.0.0, SVG Export Plug-In . SVG Version: 6.00 Build 0)  -->
<svg version="1.1" id="Layer_1" xmlns="http://www.w3.org/2000/svg" xmlns:xlink="http://www.w3.org/1999/xlink" x="0px" y="0px"
	 viewBox="0 0 32 32" style="enable-background:new 0 0 32 32;" xml:space="preserve">
<style type="text/css">
	.st0{fill:#454F58;}
	.st1{fill:#5C6670;}
	.st2{fill:#C3C6C8;}
</style>
<g>
	
		<rect x="13.85" y="-0.26" transform="matrix(0.6506 -0.7594 0.7594 0.6506 -6.8131 17.9237)" class="st0" width="4.45" height="33.25"/>
	
		<rect x="10.61" y="13.01" transform="matrix(0.6506 -0.7594 0.7594 0.6506 -5.8379 14.4962)" class="st1" width="4.45" height="1.16"/>
	
		<rect x="17.09" y="18.56" transform="matrix(0.6506 -0.7594 0.7594 0.6506 -7.7882 21.3511)" class="st1" width="4.45" height="1.16"/>
	<path class="st1" d="M11.76,4.13l-0.72-0.62C9.84,2.48,8.03,2.62,7,3.82l-4.71,5.5c-1.03,1.2-0.89,3.01,0.31,4.04l0.72,0.62
		L11.76,4.13z"/>
	<path class="st2" d="M6.54,17.55c-1.03,1.2-2.84,1.34-4.04,0.31c-1.2-1.03-1.34-2.84-0.31-4.04l9.24-10.79
		c1.03-1.2,2.84-1.34,4.04-0.31s1.34,2.84,0.31,4.04L6.54,17.55z"/>
	<path class="st1" d="M28.83,18.75l0.72,0.62c1.2,1.03,1.34,2.84,0.31,4.04l-4.71,5.5c-1.03,1.2-2.84,1.34-4.04,0.31l-0.72-0.62
		L28.83,18.75z"/>
	<path class="st2" d="M16.36,25.96c-1.03,1.2-0.89,3.01,0.31,4.04c1.2,1.03,3.01,0.89,4.04-0.31l9.24-10.79
		c1.03-1.2,0.89-3.01-0.31-4.04s-3.01-0.89-4.04,0.31L16.36,25.96z"/>
</g>
</svg>
