<?xml version="1.0" encoding="utf-8"?>
<!-- Generator: Adobe Illustrator 24.0.0, SVG Export Plug-In . SVG Version: 6.00 Build 0)  -->
<svg version="1.1" id="Layer_1" xmlns="http://www.w3.org/2000/svg" xmlns:xlink="http://www.w3.org/1999/xlink" x="0px" y="0px"
	 viewBox="0 0 488 488" style="enable-background:new 0 0 488 488;" xml:space="preserve">
<style type="text/css">
	.st0{display:none;fill:#E8A378;stroke:#000000;stroke-width:7;stroke-linecap:round;stroke-miterlimit:10;}
	.st1{display:none;fill:#EDDBC3;}
	.st2{fill:#FFFFFF;stroke:#000000;stroke-width:0.25;stroke-miterlimit:10;}
</style>
<circle class="st0" cx="244" cy="243" r="244"/>
<circle class="st1" cx="244" cy="244" r="195.75"/>
<g>
	<g>
		<path class="st2" d="M340.1,230.33L206.23,96.46c-8.84-8.84-23.24-8.84-32.2,0c-8.97,8.84-8.84,23.24,0,32.2l95.1,95.1H22.73
			C10.23,223.76,0,233.99,0,246.5s10.23,22.73,22.73,22.73h246.39l-95.1,95.1c-8.84,8.84-8.84,23.24,0,32.2
			c4.42,4.42,10.23,6.69,16.04,6.69s11.62-2.27,16.04-6.69l133.87-133.87C348.94,253.57,348.94,239.17,340.1,230.33z"/>
	</g>
</g>
<g>
	<g>
		<path class="st2" d="M468.85,19.86H340.99c-10.67,0-19.41,8.73-19.41,19.41s8.73,19.41,19.41,19.41h108.46v375.71H340.99
			c-10.67,0-19.41,8.73-19.41,19.41s8.73,19.41,19.41,19.41h127.86c10.67,0,19.41-8.73,19.41-19.41V39.27
			C488.25,28.59,479.52,19.86,468.85,19.86z"/>
	</g>
</g>
</svg>
